<mxfile host="app.diagrams.net" modified="2024-03-10T09:26:47.444Z" agent="Mozilla/5.0 (Windows NT 10.0; Win64; x64) AppleWebKit/537.36 (KHTML, like Gecko) Chrome/122.0.0.0 Safari/537.36" etag="M6UjQJ6dHjpylf5F5tFB" version="24.0.4" type="device">
  <diagram name="Σελίδα-1" id="xsf-35K6Oi35HSaFychl">
    <mxGraphModel dx="1290" dy="530" grid="1" gridSize="10" guides="1" tooltips="1" connect="1" arrows="1" fold="1" page="1" pageScale="1" pageWidth="827" pageHeight="1169" math="0" shadow="0">
      <root>
        <mxCell id="0" />
        <mxCell id="1" parent="0" />
        <mxCell id="hz6E959WXVLK30Byp2ZC-2" value="Judge 1" style="text;html=1;align=center;verticalAlign=middle;whiteSpace=wrap;rounded=0;" vertex="1" parent="1">
          <mxGeometry x="40" y="90" width="60" height="30" as="geometry" />
        </mxCell>
        <mxCell id="hz6E959WXVLK30Byp2ZC-3" value="Judge 2" style="text;html=1;align=center;verticalAlign=middle;whiteSpace=wrap;rounded=0;" vertex="1" parent="1">
          <mxGeometry x="40" y="150" width="60" height="30" as="geometry" />
        </mxCell>
        <mxCell id="hz6E959WXVLK30Byp2ZC-4" value="Judge 3" style="text;html=1;align=center;verticalAlign=middle;whiteSpace=wrap;rounded=0;" vertex="1" parent="1">
          <mxGeometry x="40" y="210" width="60" height="30" as="geometry" />
        </mxCell>
        <mxCell id="hz6E959WXVLK30Byp2ZC-5" value="Judge 4" style="text;html=1;align=center;verticalAlign=middle;whiteSpace=wrap;rounded=0;" vertex="1" parent="1">
          <mxGeometry x="40" y="280" width="60" height="30" as="geometry" />
        </mxCell>
        <mxCell id="hz6E959WXVLK30Byp2ZC-6" value="Judge 5" style="text;html=1;align=center;verticalAlign=middle;whiteSpace=wrap;rounded=0;" vertex="1" parent="1">
          <mxGeometry x="40" y="340" width="60" height="30" as="geometry" />
        </mxCell>
        <mxCell id="hz6E959WXVLK30Byp2ZC-7" value="Judge 6" style="text;html=1;align=center;verticalAlign=middle;whiteSpace=wrap;rounded=0;" vertex="1" parent="1">
          <mxGeometry x="40" y="400" width="60" height="30" as="geometry" />
        </mxCell>
        <mxCell id="hz6E959WXVLK30Byp2ZC-8" value="Judge 7" style="text;html=1;align=center;verticalAlign=middle;whiteSpace=wrap;rounded=0;" vertex="1" parent="1">
          <mxGeometry x="40" y="460" width="60" height="30" as="geometry" />
        </mxCell>
        <mxCell id="hz6E959WXVLK30Byp2ZC-9" value="WIn/loss" style="text;html=1;align=center;verticalAlign=middle;whiteSpace=wrap;rounded=0;" vertex="1" parent="1">
          <mxGeometry x="660" y="90" width="60" height="30" as="geometry" />
        </mxCell>
        <mxCell id="hz6E959WXVLK30Byp2ZC-10" value="Material" style="text;html=1;align=center;verticalAlign=middle;whiteSpace=wrap;rounded=0;" vertex="1" parent="1">
          <mxGeometry x="660" y="160" width="60" height="30" as="geometry" />
        </mxCell>
        <mxCell id="hz6E959WXVLK30Byp2ZC-11" value="Non-Material" style="text;html=1;align=center;verticalAlign=middle;whiteSpace=wrap;rounded=0;" vertex="1" parent="1">
          <mxGeometry x="660" y="240" width="60" height="30" as="geometry" />
        </mxCell>
        <mxCell id="hz6E959WXVLK30Byp2ZC-12" value="Costs and Expenses" style="text;html=1;align=center;verticalAlign=middle;whiteSpace=wrap;rounded=0;" vertex="1" parent="1">
          <mxGeometry x="660" y="350" width="60" height="30" as="geometry" />
        </mxCell>
      </root>
    </mxGraphModel>
  </diagram>
</mxfile>
